<?plantuml 1.2026.2?><svg xmlns="http://www.w3.org/2000/svg" xmlns:xlink="http://www.w3.org/1999/xlink" contentStyleType="text/css" data-diagram-type="ACTIVITY" height="252px" preserveAspectRatio="none" style="width:432px;height:252px;background:#FFFFFF;" version="1.1" viewBox="0 0 432 252" width="432px" zoomAndPan="magnify"><defs/><g><rect fill="#F1F1F1" height="33.9688" rx="12.5" ry="12.5" style="stroke:#181818;stroke-width:0.5;" width="130" x="151" y="11"/><text fill="#000000" font-family="sans-serif" font-size="12" lengthAdjust="spacing" textLength="33.5625" x="199.2188" y="32.1387">setup</text><rect fill="#F1F1F1" height="33.9688" rx="12.5" ry="12.5" style="stroke:#181818;stroke-width:0.5;" width="130" x="151" y="64.9688"/><text fill="#000000" font-family="sans-serif" font-size="12" lengthAdjust="spacing" textLength="29.5078" x="201.2461" y="86.1074">build</text><line style="stroke:#181818;stroke-width:1.5;" x1="76" x2="356" y1="118.9375" y2="118.9375"/><rect fill="#F1F1F1" height="33.9688" rx="12.5" ry="12.5" style="stroke:#181818;stroke-width:0.5;" width="130" x="11" y="173.4219"/><text fill="#000000" font-family="sans-serif" font-size="12" lengthAdjust="spacing" textLength="29.2969" x="61.3516" y="194.5605">tests</text><rect fill="#F1F1F1" height="33.9688" rx="12.5" ry="12.5" style="stroke:#181818;stroke-width:0.5;" width="130" x="151" y="138.9375"/><text fill="#000000" font-family="sans-serif" font-size="12" lengthAdjust="spacing" textLength="50.8711" x="190.5645" y="160.0762">package</text><rect fill="#F1F1F1" height="33.9688" rx="12.5" ry="12.5" style="stroke:#181818;stroke-width:0.5;" width="130" x="151" y="207.9063"/><text fill="#000000" font-family="sans-serif" font-size="12" lengthAdjust="spacing" textLength="43.3652" x="194.3174" y="229.0449">publish</text><rect fill="#F1F1F1" height="33.9688" rx="12.5" ry="12.5" style="stroke:#181818;stroke-width:0.5;" width="130" x="291" y="173.4219"/><text fill="#000000" font-family="sans-serif" font-size="12" lengthAdjust="spacing" textLength="35.918" x="338.041" y="194.5605">install</text><line style="stroke:#181818;stroke-width:1;" x1="216" x2="216" y1="44.9688" y2="64.9688"/><polygon fill="#181818" points="212,54.9688,216,64.9688,220,54.9688,216,58.9688" style="stroke:#181818;stroke-width:1;"/><line style="stroke:#181818;stroke-width:1;" x1="216" x2="216" y1="172.9063" y2="207.9063"/><polygon fill="#181818" points="212,197.9063,216,207.9063,220,197.9063,216,201.9063" style="stroke:#181818;stroke-width:1;"/><line style="stroke:#181818;stroke-width:1;" x1="76" x2="76" y1="120.4375" y2="173.4219"/><polygon fill="#181818" points="72,163.4219,76,173.4219,80,163.4219,76,167.4219" style="stroke:#181818;stroke-width:1;"/><line style="stroke:#181818;stroke-width:1;" x1="216" x2="216" y1="120.4375" y2="138.9375"/><polygon fill="#181818" points="212,128.9375,216,138.9375,220,128.9375,216,132.9375" style="stroke:#181818;stroke-width:1;"/><line style="stroke:#181818;stroke-width:1;" x1="356" x2="356" y1="120.4375" y2="173.4219"/><polygon fill="#181818" points="352,163.4219,356,173.4219,360,163.4219,356,167.4219" style="stroke:#181818;stroke-width:1;"/><line style="stroke:#181818;stroke-width:1;" x1="216" x2="216" y1="98.9375" y2="118.9375"/><polygon fill="#181818" points="212,108.9375,216,118.9375,220,108.9375,216,112.9375" style="stroke:#181818;stroke-width:1;"/><?plantuml-src VOun3i8m34Ntd28te8WjgP3OM9YPqzPAhJfkL3i38ExUgEt0X0VBN_yzoQteY-1gW201g_qya36LzCH1Htk-DDxUvmNVCskW6s7a3UlhWkLhsjFXEm4jsHlN5QJ16yc4QcmTfo0gVhid9Deh6s90te4S-Yb4y4Sg7Q6C_mHagT_G3x82?></g></svg>